<svg aria-hidden="true" style="position:absolute;width:0;height:0" xmlns="http://www.w3.org/2000/svg" overflow="hidden"><defs><symbol id="icon-right-arrow" viewBox="0 0 32 32"><path d="M31.805 15.529l-10-10a.668.668 0 0 0-.943.943l8.862 8.862H.667a.667.667 0 1 0 0 1.334h29.057l-8.862 8.862a.668.668 0 0 0 .942.943l10-10a.668.668 0 0 0 0-.943z"/></symbol><symbol id="icon-title-icon-1-24px" viewBox="0 0 32 32"><path d="M16 10.667c-2.947 0-5.333 2.387-5.333 5.333s2.387 5.333 5.333 5.333 5.333-2.387 5.333-5.333-2.387-5.333-5.333-5.333zm11.92 4c-.613-5.56-5.027-9.973-10.587-10.587V1.333h-2.667V4.08c-5.56.613-9.973 5.027-10.587 10.587H1.332v2.667h2.747c.613 5.56 5.027 9.973 10.587 10.587v2.747h2.667v-2.747c5.56-.613 9.973-5.027 10.587-10.587h2.747v-2.667H27.92zM16 25.333c-5.16 0-9.333-4.173-9.333-9.333S10.84 6.667 16 6.667 25.333 10.84 25.333 16 21.16 25.333 16 25.333z"/></symbol></defs></svg>