<svg aria-hidden="true" style="position: absolute; width: 0; height: 0; overflow: hidden;" version="1.1" xmlns="http://www.w3.org/2000/svg" xmlns:xlink="http://www.w3.org/1999/xlink">
<defs>
<symbol id="icon-right-arrow" viewBox="0 0 32 32">
<title>right-arrow</title>
<path d="M31.805 15.529l-10-10c-0.26-0.26-0.682-0.26-0.943 0s-0.26 0.682 0 0.943l8.862 8.862h-29.057c-0.368 0-0.667 0.298-0.667 0.667s0.298 0.667 0.667 0.667h29.057l-8.862 8.862c-0.26 0.26-0.26 0.682 0 0.943 0.13 0.13 0.301 0.195 0.471 0.195s0.341-0.065 0.471-0.195l10-10c0.26-0.26 0.26-0.682-0-0.943z"></path>
</symbol>
<symbol id="icon-title-icon-1-24px" viewBox="0 0 32 32">
<title>title-icon-1-24px</title>
<path d="M16 10.667c-2.947 0-5.333 2.387-5.333 5.333s2.387 5.333 5.333 5.333 5.333-2.387 5.333-5.333-2.387-5.333-5.333-5.333zM27.92 14.667c-0.613-5.56-5.027-9.973-10.587-10.587v-2.747h-2.667v2.747c-5.56 0.613-9.973 5.027-10.587 10.587h-2.747v2.667h2.747c0.613 5.56 5.027 9.973 10.587 10.587v2.747h2.667v-2.747c5.56-0.613 9.973-5.027 10.587-10.587h2.747v-2.667h-2.747zM16 25.333c-5.16 0-9.333-4.173-9.333-9.333s4.173-9.333 9.333-9.333 9.333 4.173 9.333 9.333-4.173 9.333-9.333 9.333z"></path>
</symbol>
</defs>
</svg>
