<svg xmlns="http://www.w3.org/2000/svg" xmlns:xlink="http://www.w3.org/1999/xlink" width="752" height="32" viewBox="0 0 752 32"><svg id="icon-burger" width="47" height="32" viewBox="0 0 47 32" x="0" y="0"/><svg id="icon-goiteens_logo-01" width="122" height="32" viewBox="0 0 122 32" x="96" y="0"><path fill="#fcae26" d="M46.065 4.8L119.596.319l1.622 26.621-73.531 4.481L46.065 4.8z"/><path fill="#fff" stroke="#fff" stroke-miterlimit="10" stroke-width=".803" d="M56.062 12.166l2.466-.149.683 11.219-2.466.149-.683-11.219zm9.28 1.72l-3.413.207-.138-2.277 9.298-.568.138 2.277-3.413.207.545 8.948-2.466.149-.551-8.942zm6.665 4.279c-.149-2.455 1.474-4.577 3.975-4.732 2.868-.172 4.319 1.973 4.468 4.411.011.195.011.419.006.642l-5.977.367c.31 1.09 1.113 1.623 2.203 1.554.82-.052 1.394-.344 2.03-1.009l1.468 1.147c-.74 1.044-1.858 1.721-3.413 1.818-2.581.155-4.594-1.537-4.761-4.199zm6.017-1.061c-.212-1.084-.895-1.778-1.921-1.715-1.01.063-1.623.82-1.749 1.939l3.671-.224zm4.772.402c-.149-2.455 1.474-4.577 3.975-4.732 2.868-.172 4.319 1.973 4.468 4.411.011.195.011.419.006.642l-5.977.367c.31 1.09 1.113 1.623 2.203 1.554.82-.052 1.394-.344 2.03-1.009l1.468 1.147c-.74 1.044-1.858 1.721-3.413 1.818-2.581.161-4.594-1.537-4.761-4.199zm6.017-1.061c-.212-1.084-.895-1.778-1.921-1.715-1.01.063-1.623.82-1.749 1.939l3.671-.224zm4.927-3.935l2.438-.149.075 1.216c.516-.757 1.199-1.457 2.432-1.531 1.841-.115 2.994 1.038 3.115 3.011l.338 5.564-2.438.149-.293-4.795c-.069-1.153-.654-1.715-1.583-1.658s-1.486.688-1.417 1.841l.293 4.795-2.438.149-.522-8.592zm10.732 6.831l.946-1.669c.969.619 1.967.912 2.77.86.706-.04 1.01-.321.987-.734-.034-.528-.878-.654-1.841-.883-1.222-.281-2.621-.757-2.725-2.455-.109-1.749 1.245-2.811 2.977-2.914 1.09-.069 2.3.229 3.269.797l-.826 1.738c-.878-.447-1.749-.7-2.375-.66-.591.034-.883.31-.86.683.029.482.86.654 1.813.918 1.227.327 2.656.82 2.753 2.421.115 1.91-1.256 2.862-3.115 2.971a6.042 6.042 0 0 1-3.774-1.073z"/><path d="M48.582 12.693L39.497 1.026.448 3.406l1.623 26.626 39.049-2.38 7.629-12.298.843-1.377z"/><path fill="#fff" stroke="#fff" stroke-miterlimit="10" stroke-width=".803" d="M10.41 16.112c-.195-3.189 2.134-5.954 5.529-6.16 2.019-.12 3.269.35 4.503 1.268l-1.44 1.973c-.912-.671-1.704-1.038-3.006-.958-1.795.109-3.126 1.784-3.006 3.723.126 2.053 1.629 3.47 3.614 3.35.901-.057 1.686-.327 2.283-.814l-.098-1.6-2.484.149-.132-2.134 4.875-.298.298 4.875c-1.096 1.05-2.633 1.944-4.686 2.071-3.493.212-6.046-2.094-6.252-5.443zm14.891-.826c-.195-3.189 2.162-5.954 5.627-6.166s6.103 2.22 6.304 5.443c.195 3.189-2.162 5.954-5.627 6.166-3.464.206-6.109-2.226-6.304-5.443zm9.343-.574c-.115-1.921-1.623-3.441-3.614-3.321s-3.269 1.778-3.149 3.734c.115 1.921 1.623 3.441 3.614 3.321 1.985-.12 3.269-1.778 3.149-3.734z"/></svg></svg>