<svg xmlns="http://www.w3.org/2000/svg" viewBox="0 0 2119 557.9"><style>.st1{fill:#fff;stroke:#fff;stroke-width:14;stroke-miterlimit:10}</style><g id="Слой_3"><path transform="rotate(-3.486 1458.264 276.694) scale(.99995)" fill="#fcae26" d="M816.1 44.2h1284.4v465H816.1z"/><path class="st1" d="M977.4 212.1l43-2.6 11.9 195.6-43 2.6-11.9-195.6zm161.8 30l-59.5 3.6-2.4-39.7 162.1-9.9 2.4 39.7-59.5 3.6 9.5 156-43 2.6-9.6-155.9zm116.2 74.6c-2.6-42.8 25.7-79.8 69.3-82.5 50-3 75.3 34.4 77.9 76.9.2 3.4.2 7.3.1 11.2l-104.2 6.4c5.4 19 19.4 28.3 38.4 27.1 14.3-.9 24.3-6 35.4-17.6l25.6 20c-12.9 18.2-32.4 30-59.5 31.7-45 2.7-80.1-26.8-83-73.2zm104.9-18.5c-3.7-18.9-15.6-31-33.5-29.9-17.6 1.1-28.3 14.3-30.5 33.8l64-3.9zm83.2 7c-2.6-42.8 25.7-79.8 69.3-82.5 50-3 75.3 34.4 77.9 76.9.2 3.4.2 7.3.1 11.2l-104.2 6.4c5.4 19 19.4 28.3 38.4 27.1 14.3-.9 24.3-6 35.4-17.6l25.6 20c-12.9 18.2-32.4 30-59.5 31.7-45 2.8-80.1-26.8-83-73.2zm104.9-18.5c-3.7-18.9-15.6-31-33.5-29.9-17.6 1.1-28.3 14.3-30.5 33.8l64-3.9zm85.9-68.6l42.5-2.6 1.3 21.2c9-13.2 20.9-25.4 42.4-26.7 32.1-2 52.2 18.1 54.3 52.5l5.9 97-42.5 2.6-5.1-83.6c-1.2-20.1-11.4-29.9-27.6-28.9-16.2 1-25.9 12-24.7 32.1l5.1 83.6-42.5 2.6-9.1-149.8zm187.1 119.1l16.5-29.1c16.9 10.8 34.3 15.9 48.3 15 12.3-.7 17.6-5.6 17.2-12.8-.6-9.2-15.3-11.4-32.1-15.4-21.3-4.9-45.7-13.2-47.5-42.8-1.9-30.5 21.7-49 51.9-50.8 19-1.2 40.1 4 57 13.9l-14.4 30.3c-15.3-7.8-30.5-12.2-41.4-11.5-10.3.6-15.4 5.4-15 11.9.5 8.4 15 11.4 31.6 16 21.4 5.7 46.3 14.3 48 42.2 2 33.3-21.9 49.9-54.3 51.8-21.1 1.3-45-4.3-65.8-18.7z"/></g><g id="logo_with_white_text"><path d="M847 221.3L688.6 17.9 7.8 59.4l28.3 464.2 680.8-41.5 133-214.4 14.7-24z"/><path class="st1" d="M181.5 280.9c-3.4-55.6 37.2-103.8 96.4-107.4 35.2-2.1 57 6.1 78.5 22.1L331.3 230c-15.9-11.7-29.7-18.1-52.4-16.7-31.3 1.9-54.5 31.1-52.4 64.9 2.2 35.8 28.4 60.5 63 58.4 15.7-1 29.4-5.7 39.8-14.2l-1.7-27.9-43.3 2.6-2.3-37.2 85-5.2 5.2 85c-19.1 18.3-45.9 33.9-81.7 36.1-60.9 3.7-105.4-36.5-109-94.9zm259.6-14.4c-3.4-55.6 37.7-103.8 98.1-107.5 60.4-3.7 106.4 38.7 109.9 94.9 3.4 55.6-37.7 103.8-98.1 107.5-60.4 3.6-106.5-38.8-109.9-94.9zm162.9-10c-2-33.5-28.3-60-63-57.9-34.7 2.1-57 31-54.9 65.1 2 33.5 28.3 60 63 57.9 34.6-2.1 57-31 54.9-65.1z"/></g></svg>